<?xml version="1.0" encoding="UTF-8"?> <svg xmlns="http://www.w3.org/2000/svg" width="400" height="86" viewBox="0 0 400 86" fill="none"><g clip-path="url(#clip0_1212_57)"><path d="M166 17.03V68.11H157.13V28.02H157.01L141.17 68.1H135.26L119.06 28.02H118.94V68.1H110.78V17.03H123.55L138.21 54.87H138.45L153.94 17.03H166ZM173.33 20.93C173.33 19.51 173.8 18.33 174.87 17.38C175.93 16.43 177.12 15.96 178.54 15.96C180.08 15.96 181.38 16.43 182.32 17.38C183.26 18.33 183.86 19.51 183.86 20.93C183.86 22.35 183.39 23.53 182.32 24.48C181.26 25.43 180.07 25.9 178.54 25.9C177.01 25.9 175.82 25.43 174.87 24.48C173.92 23.42 173.33 22.23 173.33 20.93ZM182.91 31.45V68.1H174.28V31.45H182.91ZM209.04 61.84C210.34 61.84 211.76 61.6 213.3 60.89C214.84 60.3 216.26 59.47 217.56 58.53V66.57C216.14 67.4 214.6 67.99 212.83 68.34C211.06 68.69 209.16 68.93 207.04 68.93C201.6 68.93 197.23 67.27 193.92 63.85C190.49 60.42 188.84 56.05 188.84 50.84C188.84 44.93 190.61 40.08 194.04 36.3C197.47 32.52 202.32 30.62 208.7 30.62C210.36 30.62 212.01 30.86 213.55 31.21C215.21 31.56 216.51 32.16 217.45 32.63V40.91C216.15 39.96 214.73 39.14 213.43 38.66C212.01 38.19 210.59 37.83 209.17 37.83C205.74 37.83 203.02 38.89 200.89 41.14C198.76 43.39 197.82 46.34 197.82 50.13C197.82 53.92 198.88 56.75 200.89 58.76C202.9 60.77 205.62 61.83 209.05 61.83L209.04 61.84ZM242.03 30.86C242.74 30.86 243.33 30.86 243.92 30.98C244.51 31.1 244.98 31.22 245.34 31.33V40.08C244.87 39.73 244.28 39.37 243.33 39.13C242.38 38.89 241.44 38.66 240.14 38.66C238.01 38.66 236.24 39.61 234.82 41.38C233.4 43.15 232.57 45.87 232.57 49.66V68.1H223.94V31.45H232.57V37.24H232.69C233.52 35.23 234.7 33.69 236.24 32.51C237.9 31.45 239.79 30.85 242.03 30.85V30.86ZM245.81 50.37C245.81 44.34 247.58 39.49 250.89 35.95C254.32 32.4 259.05 30.63 265.08 30.63C270.76 30.63 275.25 32.29 278.44 35.71C281.63 39.14 283.29 43.75 283.29 49.54C283.29 55.33 281.52 60.18 278.21 63.73C274.78 67.28 270.17 69.05 264.26 69.05C258.35 69.05 254.09 67.39 250.78 64.08C247.47 60.65 245.81 56.04 245.81 50.36V50.37ZM254.8 50.02C254.8 53.8 255.63 56.76 257.4 58.77C259.17 60.78 261.66 61.84 264.85 61.84C268.04 61.84 270.41 60.89 272.06 58.77C273.72 56.76 274.54 53.8 274.54 49.78C274.54 45.76 273.71 42.92 272.06 40.79C270.4 38.78 267.92 37.72 264.97 37.72C261.78 37.72 259.41 38.78 257.64 40.91C255.63 43.16 254.8 46.11 254.8 50.01V50.02ZM296.18 41.15C296.18 42.33 296.53 43.4 297.36 44.11C298.19 44.82 299.84 45.65 302.56 46.71C305.99 48.13 308.47 49.67 309.77 51.32C311.19 53.09 311.9 55.1 311.9 57.59C311.9 61.02 310.6 63.74 307.88 65.87C305.28 68 301.61 68.94 297.12 68.94C295.58 68.94 293.93 68.7 292.04 68.35C290.15 68 288.61 67.52 287.31 66.93V58.42C288.85 59.48 290.62 60.43 292.39 61.02C294.16 61.61 295.82 61.97 297.36 61.97C299.25 61.97 300.79 61.73 301.62 61.14C302.57 60.55 303.04 59.72 303.04 58.42C303.04 57.24 302.57 56.29 301.62 55.35C300.67 54.52 298.78 53.58 296.18 52.51C292.99 51.21 290.74 49.67 289.44 48.02C288.14 46.37 287.43 44.24 287.43 41.64C287.43 38.33 288.73 35.61 291.33 33.48C293.93 31.35 297.36 30.29 301.5 30.29C302.8 30.29 304.22 30.41 305.76 30.76C307.3 31.11 308.72 31.47 309.78 31.82V40.21C308.6 39.5 307.3 38.79 305.76 38.2C304.22 37.61 302.69 37.37 301.27 37.37C299.61 37.37 298.31 37.72 297.49 38.32C296.66 39.15 296.19 39.98 296.19 41.16L296.18 41.15ZM315.57 50.37C315.57 44.34 317.34 39.49 320.65 35.95C324.08 32.4 328.81 30.63 334.84 30.63C340.52 30.63 345.01 32.29 348.2 35.71C351.39 39.14 353.05 43.75 353.05 49.54C353.05 55.33 351.28 60.18 347.97 63.73C344.54 67.28 339.93 69.05 334.02 69.05C328.11 69.05 323.85 67.39 320.54 64.08C317.35 60.65 315.57 56.04 315.57 50.36V50.37ZM324.56 50.02C324.56 53.8 325.39 56.76 327.16 58.77C328.93 60.78 331.42 61.84 334.61 61.84C337.8 61.84 340.17 60.89 341.82 58.77C343.48 56.76 344.3 53.8 344.3 49.78C344.3 45.76 343.47 42.92 341.82 40.79C340.16 38.78 337.68 37.72 334.73 37.72C331.54 37.72 329.17 38.78 327.4 40.91C325.51 43.16 324.56 46.11 324.56 50.01V50.02ZM381.79 38.55H368.9V68.11H360.15V38.55H354V31.46H360.15V26.38C360.15 22.6 361.45 19.4 363.93 16.92C366.41 14.44 369.61 13.25 373.51 13.25C374.57 13.25 375.52 13.37 376.35 13.37C377.18 13.37 377.89 13.61 378.48 13.84V21.29C378.24 21.17 377.65 20.94 376.94 20.7C376.23 20.46 375.4 20.35 374.46 20.35C372.69 20.35 371.27 20.94 370.32 22.01C369.37 23.07 368.9 24.85 368.9 26.98V31.35H381.79V23.07L390.42 20.47V31.35H399.17V38.44H390.42V55.58C390.42 57.83 390.89 59.36 391.6 60.31C392.43 61.26 393.73 61.73 395.5 61.73C395.97 61.73 396.56 61.61 397.27 61.38C397.98 61.15 398.57 60.91 399.04 60.55V67.64C398.45 67.99 397.62 68.23 396.32 68.47C395.02 68.71 393.84 68.82 392.54 68.82C388.87 68.82 386.16 67.87 384.38 65.98C382.61 64.09 381.66 61.13 381.66 57.23L381.78 38.55H381.79Z" fill="white"></path><path d="M40.44 0H0V40.44H40.44V0Z" fill="#F25022"></path><path d="M85.1299 0H44.6899V40.44H85.1299V0Z" fill="#7FBA00"></path><path d="M40.44 44.6899H0V85.1299H40.44V44.6899Z" fill="#00A4EF"></path><path d="M85.1299 44.6899H44.6899V85.1299H85.1299V44.6899Z" fill="#FFB900"></path></g><defs><clipPath id="clip0_1212_57"><rect width="399.17" height="85.13" fill="white"></rect></clipPath></defs></svg> 