<?xml version="1.0" encoding="UTF-8"?> <svg xmlns="http://www.w3.org/2000/svg" width="181" height="28" viewBox="0 0 181 28" fill="none"><path d="M21.85 7.40997H22.85L25.7 4.55997L25.84 3.34997C24.2073 1.90892 22.2343 0.907879 20.1072 0.441399C17.98 -0.0250811 15.7691 0.0584029 13.6833 0.683965C11.5974 1.30953 9.70542 2.45651 8.18608 4.01658C6.66674 5.57664 5.57018 7.49828 5 9.59997C5.3175 9.46983 5.66921 9.44873 6 9.53997L11.7 8.59997C11.7 8.59997 11.99 8.11997 12.14 8.14997C13.3613 6.80863 15.0492 5.98486 16.858 5.8473C18.6669 5.70973 20.4599 6.26877 21.87 7.40997H21.85Z" fill="#EA4335"></path><path d="M29.7599 9.59986C29.1048 7.1875 27.7598 5.01881 25.8899 3.35986L21.8899 7.35986C22.7236 8.04103 23.3916 8.9026 23.8438 9.8796C24.2959 10.8566 24.5202 11.9235 24.4999 12.9999V13.7099C24.9674 13.7099 25.4304 13.8019 25.8623 13.9809C26.2942 14.1598 26.6866 14.422 27.0172 14.7526C27.3478 15.0831 27.61 15.4756 27.7889 15.9075C27.9678 16.3394 28.0599 16.8024 28.0599 17.2699C28.0599 17.7374 27.9678 18.2003 27.7889 18.6322C27.61 19.0641 27.3478 19.4566 27.0172 19.7872C26.6866 20.1177 26.2942 20.38 25.8623 20.5589C25.4304 20.7378 24.9674 20.8299 24.4999 20.8299H17.3799L16.6699 21.5499V25.8199L17.3799 26.5299H24.4999C26.4882 26.5453 28.4286 25.9205 30.0341 24.7476C31.6397 23.5748 32.8251 21.9164 33.415 20.0176C34.005 18.1188 33.9681 16.0806 33.3098 14.2044C32.6515 12.3283 31.4069 10.7138 29.7599 9.59986Z" fill="#4285F4"></path><path d="M10.2502 26.4902H17.3702V20.7902H10.2502C9.74289 20.7901 9.24157 20.681 8.78016 20.4702L7.78016 20.7802L4.91016 23.6302L4.66016 24.6302C6.26959 25.8455 8.23343 26.499 10.2502 26.4902Z" fill="#34A853"></path><path d="M10.2496 8.00006C8.32043 8.01158 6.44302 8.62536 4.8796 9.75566C3.31618 10.886 2.14483 12.4763 1.52914 14.3047C0.913458 16.133 0.884189 18.108 1.44542 19.9538C2.00666 21.7995 3.13037 23.4239 4.65961 24.6001L8.78961 20.4701C8.26477 20.2329 7.8053 19.872 7.45061 19.4183C7.09592 18.9646 6.85661 18.4315 6.7532 17.865C6.6498 17.2984 6.68539 16.7152 6.85693 16.1655C7.02846 15.6157 7.33082 15.1157 7.73805 14.7085C8.14529 14.3013 8.64524 13.9989 9.19502 13.8274C9.7448 13.6558 10.328 13.6203 10.8945 13.7237C11.4611 13.8271 11.9941 14.0664 12.4478 14.4211C12.9016 14.7757 13.2625 15.2352 13.4996 15.7601L17.6296 11.6301C16.7628 10.4968 15.6455 9.57946 14.3652 8.94973C13.085 8.32 11.6764 7.99497 10.2496 8.00006Z" fill="#FBBC05"></path><path d="M52.7896 22.5098C51.5638 22.5254 50.3474 22.2935 49.2133 21.8278C48.0792 21.3621 47.0508 20.6724 46.1896 19.7998C45.3014 18.9643 44.5964 17.9532 44.1196 16.8308C43.6427 15.7085 43.4044 14.4992 43.4196 13.2798C43.405 12.0605 43.6436 10.8514 44.1204 9.72913C44.5972 8.60682 45.3018 7.59572 46.1896 6.75981C47.0466 5.87821 48.0731 5.17919 49.2074 4.70486C50.3417 4.23052 51.5602 3.99069 52.7896 3.99981C53.9611 3.9842 55.1239 4.20159 56.2106 4.63935C57.2973 5.07712 58.2861 5.72652 59.1196 6.54981L57.3396 8.35981C56.1207 7.18176 54.4847 6.53455 52.7896 6.55981C51.9104 6.54901 51.0384 6.72124 50.2293 7.06555C49.4202 7.40986 48.6915 7.91873 48.0896 8.55981C47.4641 9.18038 46.9706 9.92114 46.6389 10.7375C46.3073 11.5538 46.1442 12.4288 46.1596 13.3098C46.1523 14.1808 46.3193 15.0444 46.6507 15.8498C46.9822 16.6553 47.4714 17.3863 48.0896 17.9998C49.328 19.2339 50.9991 19.9359 52.7473 19.9565C54.4955 19.977 56.1826 19.3145 57.4496 18.1098C58.234 17.2508 58.7153 16.1584 58.8196 14.9998H52.8196V12.4398H61.3096C61.3931 12.9554 61.4265 13.4778 61.4096 13.9998C61.4624 15.0802 61.2956 16.1601 60.9192 17.1742C60.5428 18.1883 59.9646 19.1155 59.2196 19.8998C58.3914 20.7622 57.3907 21.4403 56.2828 21.89C55.1749 22.3397 53.9846 22.5509 52.7896 22.5098ZM72.5296 20.8098C71.3902 21.902 69.8729 22.5118 68.2946 22.5118C66.7163 22.5118 65.199 21.902 64.0596 20.8098C63.4925 20.2599 63.0459 19.5982 62.7481 18.8666C62.4503 18.135 62.3078 17.3494 62.3296 16.5598C62.3084 15.7703 62.4512 14.9849 62.7489 14.2534C63.0467 13.5218 63.493 12.86 64.0596 12.3098C65.2002 11.2199 66.7171 10.6117 68.2946 10.6117C69.8722 10.6117 71.3891 11.2199 72.5296 12.3098C73.0963 12.86 73.5426 13.5218 73.8403 14.2534C74.1381 14.9849 74.2809 15.7703 74.2596 16.5598C74.2802 17.3502 74.1361 18.1361 73.8366 18.8678C73.537 19.5995 73.0885 20.2608 72.5196 20.8098H72.5296ZM65.9296 19.1398C66.2327 19.4635 66.599 19.7215 67.0058 19.8978C67.4126 20.0742 67.8512 20.1652 68.2946 20.1652C68.738 20.1652 69.1767 20.0742 69.5835 19.8978C69.9903 19.7215 70.3566 19.4635 70.6596 19.1398C70.9901 18.7983 71.2488 18.394 71.4206 17.9509C71.5923 17.5078 71.6736 17.0348 71.6596 16.5598C71.6744 16.0832 71.5935 15.6085 71.4217 15.1636C71.25 14.7188 70.9908 14.3129 70.6596 13.9698C70.3526 13.6495 69.9838 13.3946 69.5757 13.2204C69.1675 13.0463 68.7284 12.9565 68.2846 12.9565C67.8409 12.9565 67.4017 13.0463 66.9936 13.2204C66.5854 13.3946 66.2167 13.6495 65.9096 13.9698C65.5784 14.3129 65.3193 14.7188 65.1475 15.1636C64.9758 15.6085 64.8949 16.0832 64.9096 16.5598C64.897 17.0355 64.9799 17.509 65.1533 17.9521C65.3268 18.3952 65.5874 18.7991 65.9196 19.1398H65.9296ZM85.5496 20.8098C84.4102 21.902 82.893 22.5118 81.3146 22.5118C79.7363 22.5118 78.219 21.902 77.0796 20.8098C76.5125 20.2599 76.0659 19.5982 75.7681 18.8666C75.4703 18.135 75.3278 17.3494 75.3496 16.5598C75.3284 15.7703 75.4712 14.9849 75.7689 14.2534C76.0667 13.5218 76.513 12.86 77.0796 12.3098C78.219 11.2176 79.7363 10.6079 81.3146 10.6079C82.893 10.6079 84.4102 11.2176 85.5496 12.3098C86.1163 12.86 86.5626 13.5218 86.8603 14.2534C87.1581 14.9849 87.3009 15.7703 87.2796 16.5598C87.3015 17.3494 87.159 18.135 86.8612 18.8666C86.5634 19.5982 86.1167 20.2599 85.5496 20.8098ZM78.9496 19.1398C79.2527 19.4635 79.619 19.7215 80.0258 19.8978C80.4326 20.0742 80.8712 20.1652 81.3146 20.1652C81.758 20.1652 82.1967 20.0742 82.6035 19.8978C83.0103 19.7215 83.3766 19.4635 83.6796 19.1398C84.0101 18.7983 84.2688 18.394 84.4406 17.9509C84.6123 17.5078 84.6936 17.0348 84.6796 16.5598C84.6944 16.0832 84.6135 15.6085 84.4417 15.1636C84.27 14.7188 84.0108 14.3129 83.6796 13.9698C83.3726 13.6495 83.0038 13.3946 82.5957 13.2204C82.1875 13.0463 81.7484 12.9565 81.3046 12.9565C80.8609 12.9565 80.4217 13.0463 80.0136 13.2204C79.6054 13.3946 79.2367 13.6495 78.9296 13.9698C78.5984 14.3129 78.3393 14.7188 78.1675 15.1636C77.9958 15.6085 77.9149 16.0832 77.9296 16.5598C77.917 17.0355 77.9999 17.509 78.1733 17.9521C78.3468 18.3952 78.6074 18.7991 78.9396 19.1398H78.9496ZM94.1096 27.8498C92.911 27.8879 91.7356 27.5138 90.7796 26.7898C89.9308 26.1517 89.2623 25.304 88.8396 24.3298L91.1196 23.3798C91.3678 23.962 91.7559 24.4738 92.2496 24.8698C92.7781 25.2958 93.4412 25.5192 94.1196 25.4998C94.5499 25.526 94.9807 25.4591 95.3828 25.3038C95.7848 25.1485 96.1487 24.9084 96.4496 24.5998C97.0521 23.8731 97.3496 22.9412 97.2796 21.9998V21.1398H97.1896C96.8086 21.5924 96.3273 21.95 95.784 22.1844C95.2407 22.4187 94.6503 22.5233 94.0596 22.4898C93.3088 22.4921 92.5657 22.3386 91.8772 22.0391C91.1887 21.7396 90.5698 21.3006 90.0596 20.7498C89.506 20.2034 89.069 19.5503 88.7751 18.8301C88.4812 18.1099 88.3364 17.3376 88.3496 16.5598C88.3358 15.7775 88.4802 15.0005 88.774 14.2753C89.0679 13.5502 89.5051 12.8918 90.0596 12.3398C90.5686 11.7867 91.187 11.3455 91.8756 11.0442C92.5642 10.743 93.308 10.5882 94.0596 10.5898C94.6957 10.5887 95.3242 10.7287 95.8996 10.9998C96.3975 11.2172 96.8413 11.5416 97.1996 11.9498H97.2896V10.9998H99.7696V21.6498C99.8349 22.4923 99.7276 23.3392 99.4542 24.1388C99.1808 24.9383 98.7471 25.6737 98.1796 26.2998C97.6391 26.8169 97.0005 27.2205 96.3015 27.4867C95.6025 27.7529 94.8572 27.8764 94.1096 27.8498ZM94.2896 20.1698C94.7166 20.1792 95.1405 20.0945 95.5311 19.9216C95.9217 19.7488 96.2694 19.4921 96.5496 19.1698C97.1666 18.4628 97.4919 17.5477 97.4596 16.6098C97.4967 15.6561 97.1716 14.7237 96.5496 13.9998C96.2698 13.6769 95.9222 13.4199 95.5315 13.247C95.1408 13.0741 94.7167 12.9897 94.2896 12.9998C93.851 12.9908 93.4154 13.0753 93.0119 13.2477C92.6084 13.4202 92.2463 13.6765 91.9496 13.9998C91.2881 14.6977 90.9288 15.6285 90.9496 16.5898C90.9395 17.0614 91.0226 17.5303 91.1942 17.9696C91.3658 18.4089 91.6225 18.81 91.9496 19.1498C92.2449 19.4762 92.6063 19.736 93.0098 19.9118C93.4132 20.0877 93.8495 20.1757 94.2896 20.1698ZM104.18 4.66981V22.1498H101.57V4.66981H104.18ZM111.34 22.5098C110.558 22.5299 109.781 22.3884 109.056 22.0942C108.332 21.7999 107.676 21.3593 107.13 20.7998C106.575 20.2445 106.14 19.5822 105.849 18.8534C105.559 18.1245 105.419 17.3442 105.44 16.5598C105.41 15.7735 105.539 14.9893 105.819 14.254C106.099 13.5186 106.525 12.8472 107.07 12.2798C107.583 11.7383 108.204 11.31 108.893 11.0224C109.582 10.7348 110.323 10.5943 111.07 10.6098C111.756 10.6026 112.436 10.7353 113.07 10.9998C113.64 11.23 114.16 11.5698 114.6 11.9998C114.977 12.3644 115.313 12.7703 115.6 13.2098C115.832 13.5809 116.029 13.9726 116.19 14.3798L116.46 15.0598L108.46 18.3498C108.702 18.9057 109.106 19.3753 109.62 19.6966C110.135 20.0179 110.734 20.1759 111.34 20.1498C111.929 20.1514 112.509 20.0003 113.022 19.7111C113.536 19.4219 113.965 19.0046 114.27 18.4998L116.27 19.8498C115.759 20.58 115.106 21.1992 114.35 21.6698C113.45 22.2382 112.404 22.5302 111.34 22.5098ZM108 16.3798L113.32 14.1698C113.156 13.7801 112.863 13.4588 112.49 13.2598C112.072 13.024 111.599 12.9032 111.12 12.9098C110.306 12.9309 109.533 13.2723 108.97 13.8598C108.632 14.1825 108.371 14.5757 108.203 15.0114C108.035 15.447 107.966 15.9143 108 16.3798Z" fill="white"></path><path d="M130.13 22.5101C129.02 22.5293 127.918 22.324 126.889 21.9065C125.861 21.489 124.927 20.8679 124.144 20.0806C123.362 19.2932 122.746 18.3559 122.335 17.3247C121.923 16.2936 121.725 15.19 121.75 14.0801C121.725 12.9703 121.923 11.8666 122.335 10.8355C122.746 9.8044 123.362 8.86703 124.144 8.0797C124.927 7.29237 125.861 6.67131 126.889 6.2538C127.918 5.8363 129.02 5.63097 130.13 5.65013C131.254 5.615 132.371 5.8342 133.397 6.29135C134.424 6.74849 135.335 7.43177 136.06 8.29013L134.62 9.69013C134.087 9.02002 133.404 8.48511 132.626 8.1289C131.847 7.77268 130.996 7.60522 130.14 7.64013C129.317 7.62158 128.498 7.7697 127.733 8.07559C126.969 8.38147 126.274 8.83882 125.69 9.42013C125.084 10.0301 124.61 10.759 124.298 11.5609C123.987 12.3629 123.844 13.2206 123.88 14.0801C123.844 14.9397 123.987 15.7974 124.298 16.5993C124.61 17.4012 125.084 18.1301 125.69 18.7401C126.274 19.3214 126.969 19.7788 127.733 20.0847C128.498 20.3906 129.317 20.5387 130.14 20.5201C131.096 20.5308 132.042 20.326 132.907 19.9209C133.773 19.5158 134.536 18.9208 135.14 18.1801L136.58 19.6201C135.826 20.5217 134.88 21.2427 133.81 21.7301C132.657 22.2624 131.4 22.5289 130.13 22.5101Z" fill="white"></path><path d="M140.45 22.15H138.38V6H140.45V22.15Z" fill="white"></path><path d="M143.83 12.4298C144.915 11.3526 146.382 10.748 147.91 10.748C149.439 10.748 150.906 11.3526 151.99 12.4298C152.521 12.9898 152.935 13.6492 153.21 14.37C153.484 15.0908 153.614 15.8588 153.59 16.6298C153.614 17.4008 153.484 18.1688 153.21 18.8896C152.935 19.6104 152.521 20.2698 151.99 20.8298C150.906 21.907 149.439 22.5116 147.91 22.5116C146.382 22.5116 144.915 21.907 143.83 20.8298C143.3 20.2698 142.885 19.6104 142.611 18.8896C142.336 18.1688 142.207 17.4008 142.23 16.6298C142.207 15.8588 142.336 15.0908 142.611 14.37C142.885 13.6492 143.3 12.9898 143.83 12.4298ZM145.37 19.5298C145.696 19.8745 146.089 20.149 146.525 20.3367C146.961 20.5243 147.431 20.6211 147.905 20.6211C148.38 20.6211 148.849 20.5243 149.285 20.3367C149.721 20.149 150.114 19.8745 150.44 19.5298C150.802 19.1416 151.083 18.6852 151.267 18.1873C151.45 17.6895 151.533 17.16 151.51 16.6298C151.533 16.0996 151.45 15.5701 151.267 15.0723C151.083 14.5744 150.802 14.118 150.44 13.7298C150.114 13.3851 149.721 13.1106 149.285 12.9229C148.849 12.7353 148.38 12.6385 147.905 12.6385C147.431 12.6385 146.961 12.7353 146.525 12.9229C146.089 13.1106 145.696 13.3851 145.37 13.7298C145.008 14.118 144.727 14.5744 144.544 15.0723C144.36 15.5701 144.277 16.0996 144.3 16.6298C144.28 17.159 144.365 17.687 144.55 18.1831C144.736 18.6792 145.018 19.1336 145.38 19.5198L145.37 19.5298Z" fill="white"></path><path d="M165.06 22.1499H163.06V20.6199H163C162.644 21.201 162.14 21.6772 161.54 21.9999C160.917 22.3608 160.21 22.5506 159.49 22.5499C158.906 22.5898 158.32 22.4973 157.776 22.2791C157.232 22.0609 156.745 21.7228 156.35 21.2899C155.593 20.3317 155.212 19.1294 155.28 17.9099V11.1099H157.35V17.5299C157.35 19.5899 158.26 20.6199 160.08 20.6199C160.485 20.6325 160.886 20.5483 161.251 20.3744C161.617 20.2004 161.935 19.9417 162.18 19.6199C162.717 18.9399 163.003 18.0959 162.99 17.2299V11.1099H165.06V22.1499Z" fill="white"></path><path d="M172.09 22.51C171.388 22.5123 170.694 22.3625 170.055 22.0707C169.416 21.779 168.848 21.3523 168.39 20.82C167.353 19.6749 166.798 18.1741 166.84 16.63C166.798 15.0859 167.353 13.5851 168.39 12.44C168.848 11.9077 169.416 11.481 170.055 11.1893C170.694 10.8975 171.388 10.7477 172.09 10.75C172.877 10.7376 173.654 10.9233 174.35 11.29C174.962 11.5978 175.48 12.064 175.85 12.64H175.94L175.85 11.11V6H177.92V22.15H175.92V20.62H175.83C175.46 21.196 174.942 21.6622 174.33 21.97C173.64 22.3335 172.87 22.5191 172.09 22.51ZM172.43 20.62C172.898 20.6268 173.362 20.534 173.791 20.3478C174.221 20.1616 174.605 19.8863 174.92 19.54C175.623 18.7393 175.983 17.6938 175.92 16.63C175.983 15.5662 175.623 14.5207 174.92 13.72C174.603 13.3718 174.217 13.0937 173.787 12.9034C173.356 12.713 172.891 12.6147 172.42 12.6147C171.949 12.6147 171.484 12.713 171.053 12.9034C170.623 13.0937 170.237 13.3718 169.92 13.72C169.571 14.1138 169.303 14.5727 169.131 15.0703C168.959 15.568 168.888 16.0946 168.92 16.62C168.888 17.1454 168.959 17.672 169.131 18.1697C169.303 18.6673 169.571 19.1262 169.92 19.52C170.235 19.8725 170.622 20.1531 171.056 20.3429C171.489 20.5327 171.957 20.6272 172.43 20.62Z" fill="white"></path></svg> 